<svg xmlns="http://www.w3.org/2000/svg" xmlns:xlink="http://www.w3.org/1999/xlink" version="1.1" width="1300" height="400" viewBox="0 0 1300 400" xml:space="preserve">
<desc>Created with Fabric.js 3.5.0</desc>
<defs>
</defs>
<rect x="0" y="0" width="100%" height="100%" fill="rgba(255,255,255,0)"/>
<g transform="matrix(1 0 0 1 750.5797 261.606)" style="" id="408391">
		
<path xml:space="preserve" font-family="Six Caps" font-size="348" font-style="normal" font-weight="normal" style="stroke: rgb(0,0,0); stroke-width: 1; stroke-dasharray: none; stroke-linecap: butt; stroke-dashoffset: 0; stroke-linejoin: miter; stroke-miterlimit: 4; is-custom-font: none; font-file-url: none; fill: rgb(255,255,255); fill-rule: nonzero; opacity: 1; white-space: pre;" d="M-637.72-157.12L-637.72-64.68L-659.47-64.68L-659.47-157.12Q-659.47-159.16-659.64-161.53Q-659.81-163.91-660.83-165.87Q-661.85-167.82-664.05-169.18Q-666.26-170.54-670.34-170.54L-670.34-170.54Q-674.42-170.54-676.63-169.18Q-678.84-167.82-679.86-165.87Q-680.88-163.91-681.05-161.53Q-681.22-159.16-681.22-157.12L-681.22-157.12L-681.22 82.13Q-681.22 84.17-681.05 86.98Q-680.88 89.78-679.86 92.33Q-678.84 94.88-676.63 96.66Q-674.42 98.45-670.34 98.45L-670.34 98.45Q-666.26 98.45-664.05 96.66Q-661.85 94.88-660.83 92.33Q-659.81 89.78-659.64 86.98Q-659.47 84.17-659.47 82.13L-659.47 82.13L-659.47-26.62L-664.90-26.62L-664.90-42.93L-637.72-42.93L-637.72 82.13Q-637.72 84.17-638.23 89.52Q-638.74 94.88-641.79 100.48Q-644.85 106.09-651.48 110.43Q-658.11 114.76-670.34 114.76L-670.34 114.76Q-682.58 114.76-689.20 110.43Q-695.83 106.09-698.89 100.48Q-701.95 94.88-702.46 89.52Q-702.97 84.17-702.97 82.13L-702.97 82.13L-702.97-157.12Q-702.97-158.48-702.80-161.19Q-702.63-163.91-701.78-167.23Q-700.93-170.54-698.89-174.02Q-696.85-177.51-693.28-180.40Q-689.71-183.28-684.11-185.07Q-678.50-186.85-670.34-186.85L-670.34-186.85Q-662.19-186.85-656.58-185.07Q-650.97-183.28-647.40-180.40Q-643.83-177.51-641.79-174.02Q-639.76-170.54-638.91-167.23Q-638.06-163.91-637.89-161.19Q-637.72-158.48-637.72-157.12L-637.72-157.12ZM-550.72-151.68L-550.72 109.32L-567.03 109.32L-596.94-42.93L-596.94 109.32L-615.97 109.32L-615.97-151.68L-599.65-151.68L-569.58 6.01L-569.58-151.68L-550.72-151.68ZM-485.47-151.68L-485.47-135.37L-507.22-135.37L-507.22-37.49L-485.47-37.49L-485.47-21.18L-507.22-21.18L-507.22 93.01L-485.47 93.01L-485.47 109.32L-528.97 109.32L-528.97-151.68L-485.47-151.68ZM-409.34-127.21L-409.34-59.24L-431.09-59.24L-431.09-127.21Q-431.09-133.33-433.64-135.71Q-436.19-138.09-439.25-138.09L-439.25-138.09Q-442.31-138.09-444.86-135.71Q-447.40-133.33-447.40-127.21L-447.40-127.21Q-447.40-109.03-445.71-93.74Q-444.01-78.44-441.29-65.53Q-438.57-52.61-435.17-41.99Q-431.77-31.37-428.37-22.54L-428.37-22.54Q-425.65-15.57-422.34-6.40Q-419.03 2.78-416.14 15.52Q-413.25 28.27-411.30 45.26Q-409.34 62.25-409.34 84.85L-409.34 84.85Q-409.34 91.99-411.89 97.17Q-414.44 102.35-418.69 105.67Q-422.94 108.98-428.29 110.51Q-433.64 112.04-439.25 112.04L-439.25 112.04Q-444.86 112.04-450.21 110.51Q-455.56 108.98-459.81 105.67Q-464.06 102.35-466.61 97.17Q-469.15 91.99-469.15 84.85L-469.15 84.85L-469.15 16.88L-447.40 16.88L-447.40 84.85Q-447.40 90.97-444.86 93.35Q-442.31 95.73-439.25 95.73L-439.25 95.73Q-436.19 95.73-433.64 93.35Q-431.09 90.97-431.09 84.85L-431.09 84.85Q-431.09 62.93-433.22 46.36Q-435.34 29.80-438.57 17.14Q-441.80 4.48-445.62-5.04Q-449.44-14.55-452.67-22.54L-452.67-22.54Q-455.90-30.36-458.87-40.38Q-461.85-50.41-464.14-63.15Q-466.44-75.89-467.79-91.78Q-469.15-107.67-469.15-127.21L-469.15-127.21Q-469.15-134.35-466.61-139.44Q-464.06-144.54-459.81-147.86Q-455.56-151.17-450.21-152.78Q-444.86-154.40-439.25-154.40L-439.25-154.40Q-433.64-154.40-428.29-152.78Q-422.94-151.17-418.69-147.86Q-414.44-144.54-411.89-139.44Q-409.34-134.35-409.34-127.21L-409.34-127.21ZM-384.87-151.68L-363.12-151.68L-363.12 109.32L-384.87 109.32L-384.87-151.68ZM-273.40-151.68L-273.40 109.32L-289.72 109.32L-319.62-42.93L-319.62 109.32L-338.65 109.32L-338.65-151.68L-322.34-151.68L-292.27 6.01L-292.27-151.68L-273.40-151.68ZM-146.13-157.12L-146.13-64.68L-167.88-64.68L-167.88-157.12Q-167.88-161.19-168.82-163.83Q-169.75-166.46-171.28-167.91Q-172.81-169.35-174.76-169.95Q-176.72-170.54-178.76-170.54L-178.76-170.54Q-180.80-170.54-182.75-169.95Q-184.71-169.35-186.23-167.91Q-187.76-166.46-188.70-163.83Q-189.63-161.19-189.63-157.12L-189.63-157.12L-189.63 82.13Q-189.63 84.17-189.46 86.98Q-189.29 89.78-188.27 92.33Q-187.25 94.88-185.04 96.66Q-182.84 98.45-178.76 98.45L-178.76 98.45Q-174.68 98.45-172.47 96.66Q-170.26 94.88-169.24 92.33Q-168.22 89.78-168.05 86.98Q-167.88 84.17-167.88 82.13L-167.88 82.13L-167.88-32.05L-146.13-32.05L-146.13 82.13Q-146.13 84.17-146.64 89.52Q-147.15 94.88-150.21 100.48Q-153.27 106.09-159.90 110.43Q-166.52 114.76-178.76 114.76L-178.76 114.76Q-190.99 114.76-197.62 110.43Q-204.25 106.09-207.30 100.48Q-210.36 94.88-210.87 89.52Q-211.38 84.17-211.38 82.13L-211.38 82.13L-211.38-157.12Q-211.38-164.93-208.49-170.63Q-205.61-176.32-200.93-179.89Q-196.26-183.45-190.48-185.15Q-184.71-186.85-178.76-186.85L-178.76-186.85Q-172.47-186.85-166.61-184.98Q-160.75-183.11-156.16-179.38Q-151.57-175.64-148.85-170.03Q-146.13-164.42-146.13-157.12L-146.13-157.12ZM-80.88-34.43L-80.88-151.68L-59.13-151.68L-59.13 109.32L-80.88 109.32L-80.88-17.44L-102.63-17.44L-102.63 109.32L-124.38 109.32L-124.38-151.68L-102.63-151.68L-102.63-34.43L-80.88-34.43ZM6.12-151.68L6.12-135.37L-15.63-135.37L-15.63-37.49L6.12-37.49L6.12-21.18L-15.63-21.18L-15.63 93.01L6.12 93.01L6.12 109.32L-37.38 109.32L-37.38-151.68L6.12-151.68ZM82.24-127.21L82.24-59.24L60.49-59.24L60.49-127.21Q60.49-133.33 57.94-135.71Q55.39-138.09 52.34-138.09L52.34-138.09Q49.28-138.09 46.73-135.71Q44.18-133.33 44.18-127.21L44.18-127.21Q44.18-109.03 45.88-93.74Q47.58-78.44 50.30-65.53Q53.02-52.61 56.41-41.99Q59.81-31.37 63.21-22.54L63.21-22.54Q65.93-15.57 69.24-6.40Q72.56 2.78 75.45 15.52Q78.33 28.27 80.29 45.26Q82.24 62.25 82.24 84.85L82.24 84.85Q82.24 91.99 79.69 97.17Q77.14 102.35 72.90 105.67Q68.65 108.98 63.30 110.51Q57.94 112.04 52.34 112.04L52.34 112.04Q46.73 112.04 41.38 110.51Q36.02 108.98 31.78 105.67Q27.53 102.35 24.98 97.17Q22.43 91.99 22.43 84.85L22.43 84.85L22.43 16.88L44.18 16.88L44.18 84.85Q44.18 90.97 46.73 93.35Q49.28 95.73 52.34 95.73L52.34 95.73Q55.39 95.73 57.94 93.35Q60.49 90.97 60.49 84.85L60.49 84.85Q60.49 62.93 58.37 46.36Q56.24 29.80 53.02 17.14Q49.79 4.48 45.96-5.04Q42.14-14.55 38.91-22.54L38.91-22.54Q35.68-30.36 32.71-40.38Q29.74-50.41 27.44-63.15Q25.15-75.89 23.79-91.78Q22.43-107.67 22.43-127.21L22.43-127.21Q22.43-134.35 24.98-139.44Q27.53-144.54 31.78-147.86Q36.02-151.17 41.38-152.78Q46.73-154.40 52.34-154.40L52.34-154.40Q57.94-154.40 63.30-152.78Q68.65-151.17 72.90-147.86Q77.14-144.54 79.69-139.44Q82.24-134.35 82.24-127.21L82.24-127.21ZM163.80-127.21L163.80-59.24L142.05-59.24L142.05-127.21Q142.05-133.33 139.51-135.71Q136.96-138.09 133.90-138.09L133.90-138.09Q130.84-138.09 128.29-135.71Q125.74-133.33 125.74-127.21L125.74-127.21Q125.74-109.03 127.44-93.74Q129.14-78.44 131.86-65.53Q134.58-52.61 137.98-41.99Q141.37-31.37 144.77-22.54L144.77-22.54Q147.49-15.57 150.81-6.40Q154.12 2.78 157.01 15.52Q159.90 28.27 161.85 45.26Q163.80 62.25 163.80 84.85L163.80 84.85Q163.80 91.99 161.26 97.17Q158.71 102.35 154.46 105.67Q150.21 108.98 144.86 110.51Q139.51 112.04 133.90 112.04L133.90 112.04Q128.29 112.04 122.94 110.51Q117.59 108.98 113.34 105.67Q109.09 102.35 106.54 97.17Q103.99 91.99 103.99 84.85L103.99 84.85L103.99 16.88L125.74 16.88L125.74 84.85Q125.74 90.97 128.29 93.35Q130.84 95.73 133.90 95.73L133.90 95.73Q136.96 95.73 139.51 93.35Q142.05 90.97 142.05 84.85L142.05 84.85Q142.05 62.93 139.93 46.36Q137.81 29.80 134.58 17.14Q131.35 4.48 127.53-5.04Q123.70-14.55 120.47-22.54L120.47-22.54Q117.25-30.36 114.27-40.38Q111.30-50.41 109.00-63.15Q106.71-75.89 105.35-91.78Q103.99-107.67 103.99-127.21L103.99-127.21Q103.99-134.35 106.54-139.44Q109.09-144.54 113.34-147.86Q117.59-151.17 122.94-152.78Q128.29-154.40 133.90-154.40L133.90-154.40Q139.51-154.40 144.86-152.78Q150.21-151.17 154.46-147.86Q158.71-144.54 161.26-139.44Q163.80-134.35 163.80-127.21L163.80-127.21ZM285.47-169.01L285.47-73.69L262.53-73.69L262.53-169.01Q262.53-171.39 260.32-173.26Q258.11-175.13 254.20-175.13L254.20-175.13Q251.14-175.13 248.85-173.26Q246.56-171.39 246.56-169.01L246.56-169.01L246.56-71.14Q246.56-65.53 247.66-62.47Q248.77-59.41 250.80-58.05Q252.84-56.69 255.90-56.44Q258.96-56.18 262.87-56.18L262.87-56.18L262.87-36.30Q258.96-36.30 255.90-36.22Q252.84-36.13 250.80-35.20Q248.77-34.26 247.66-32.14Q246.56-30.02 246.56-26.11L246.56-26.11L246.56 87.74Q246.56 90.29 248.85 92.33Q251.14 94.37 254.20 94.37L254.20 94.37Q258.11 94.37 260.32 92.33Q262.53 90.29 262.53 87.74L262.53 87.74L262.53-17.95L300.42-17.95L300.25 0.91L285.47 1.25L285.47 88.25Q285.47 93.18 283.00 97.68Q280.54 102.18 276.29 105.58Q272.04 108.98 266.35 110.93Q260.66 112.89 254.20 112.89L254.20 112.89Q248.09 112.89 242.56 110.93Q237.04 108.98 232.88 105.50Q228.71 102.01 226.25 97.43Q223.79 92.84 223.79 87.74L223.79 87.74L223.79-26.79Q223.79-33.41 226.42-37.66Q229.05-41.91 232.45-44.12L232.45-44.12Q236.53-46.84 241.46-48.03L241.46-48.03Q236.19-49.05 232.45-52.11L232.45-52.11Q229.05-54.48 226.42-58.99Q223.79-63.49 223.79-71.14L223.79-71.14L223.79-169.01Q223.79-174.11 226.25-178.70Q228.71-183.28 232.88-186.60Q237.04-189.91 242.56-191.87Q248.09-193.82 254.20-193.82L254.20-193.82Q260.66-193.82 266.35-191.95Q272.04-190.08 276.29-186.77Q280.54-183.45 283.00-178.87Q285.47-174.28 285.47-169.01L285.47-169.01ZM393.03 16.88L409.34-184.30L431.09-184.30L436.53 109.32L414.78 109.32L414.78-91.87L398.47 93.01L387.59 93.01L371.28-91.87L371.28 109.32L349.53 109.32L354.97-184.30L376.72-184.30L393.03 16.88ZM501.78-184.30L518.09 109.32L496.34 109.32L493.62 38.63L477.48 38.63L474.59 109.32L452.84 109.32L469.15-184.30L501.78-184.30ZM493.62 22.32L490.90-42.93L485.47-173.43L480.03-42.93L477.48 22.32L493.62 22.32ZM583.34-184.30L583.34-167.99L556.15-167.99L556.15-59.24L577.90-59.24L577.90-42.93L556.15-42.93L556.15 109.32L534.40 109.32L534.40-184.30L583.34-184.30ZM602.37-184.30L624.12-184.30L624.12 109.32L602.37 109.32L602.37-184.30ZM692.09-184.30L708.40 109.32L686.65 109.32L683.94 38.63L667.79 38.63L664.90 109.32L643.15 109.32L659.47-184.30L692.09-184.30ZM683.94 22.32L681.22-42.93L675.78-173.43L670.34-42.93L667.79 22.32L683.94 22.32Z"/></g>
</svg>